<svg xmlns="http://www.w3.org/2000/svg" viewBox="0 0 10.44 20"><defs><style>.cls-1{fill:#282828;fill-rule:evenodd;}</style></defs><g id="Capa_2" data-name="Capa 2"><g id="TEAM"><g id="Team_2" data-name="Team 2"><path class="cls-1" d="M8.33,3.38c.62,0,1.24,0,1.86,0h.25V.15c-.33,0-.67-.08-1-.1C8.78,0,8.15,0,7.51,0A4.63,4.63,0,0,0,4.82.84,4,4,0,0,0,3.2,3.53a9.07,9.07,0,0,0-.11,1.38c0,.72,0,1.45,0,2.17v.27H0V11H3.07V20H6.81V11H9.87c.16-1.2.31-2.39.47-3.62H6.79s0-1.79,0-2.56C6.85,3.73,7.48,3.41,8.33,3.38Z"/></g></g></g></svg>