<?xml version="1.0" encoding="utf-8"?>
<!-- Generator: Adobe Illustrator 26.1.0, SVG Export Plug-In . SVG Version: 6.00 Build 0)  -->
<svg version="1.1" id="Capa_1" xmlns="http://www.w3.org/2000/svg" xmlns:xlink="http://www.w3.org/1999/xlink" x="0px" y="0px"
	 viewBox="0 0 600 400" style="enable-background:new 0 0 600 400;" xml:space="preserve">
<style type="text/css">
	.st0{opacity:0.9;fill:#FFFFFF;}
</style>
<path class="st0" d="M379.7,347.8c0,12.1-9.1,22.8-19.7,26.9c-9.8,3.8-21,2-29.3-4.5c-0.3-0.3-0.5-0.2-0.6,0.2
	c-2.6,21.2-23.4,33.3-43.2,25c-2.9-1.2-7.3-4.5-13-9.7c-4.2-3.8-8.4-7.5-12.6-10.9c-0.2-0.2-0.5-0.2-0.7,0
	c-8.9,7.6-21.6,7.7-31.2,1.8c-8.3-5.1-13.1-12.4-14.5-21.9c-0.1-0.6-0.4-0.8-1-0.6c-0.8,0.2-1.6,0.4-2.5,0.5
	c-17.1,1.4-31-11-31.5-28.1c0-0.5-0.3-0.7-0.7-0.6c-19.9,2.5-35.4-13.1-32.8-33.2c0.1-0.4-0.1-0.6-0.6-0.7
	c-10.2-0.2-18.3-4.2-24.2-11.9c-7.1-9.2-7.9-19.3-2.5-30.1c0.2-0.4,0.1-0.7-0.1-1c-6.6-6.9-12-14.5-16.1-22.7c-2-4-6.7-5.5-10.5-7.4
	c-0.4-0.2-0.8-0.1-1.1,0.2c-5.7,6.9-12.8,9.9-21.2,8.9c-2.9-0.3-6.5-1.7-11-4c-14.7-7.8-30.1-15.7-46.2-23.9
	c-6.2-3.2-10.3-7.9-12.1-14.3c-2.1-7.3-0.4-13.1,3.3-20.1C32.1,112,58.2,61.6,82.4,14.5c4.6-9,14.1-13.9,24.2-12.3
	c2.7,0.4,5.8,1.6,9.2,3.4c13.4,7.1,26.8,14.1,40.2,20.8c7.1,3.6,11.6,6.4,13.5,8.5c5.9,6.6,7.6,14.3,5.1,23.1c-0.1,0.4,0,0.8,0.4,1
	c7.8,4.1,15.3,8.1,22.7,12.1c6.5,3.5,16.3,3.2,23.6,3.1c11.6-0.1,22.4-0.4,32.5-0.8c0.3,0,0.7-0.1,0.9-0.4
	c9.5-8,16.8-13.9,21.8-17.6c5.9-4.5,12.9-7.5,20.9-9.1c5.4-1.1,13-1.2,22.6-0.4c28.8,2.6,56.7,8.9,83.8,13.7
	c5.3,0.9,10.8,1.5,16.6,1.7c2.9,0.1,5.6-0.3,8.2-1.2c5.6-1.9,11.3-3.9,17.2-5.8c0.4-0.2,0.6-0.5,0.6-0.9c-0.2-1.5-0.7-3-0.7-4.4
	c-0.3-12.4,5.5-20.5,17.5-24.4c14.3-4.6,29.7-9.8,46.3-15.4c6-2,10.5-3,13.5-2.8c10.3,0.5,17.9,6.9,21.1,16.5
	c18.6,56.3,36.7,111,54.3,164c4.2,12.7-2.4,25.5-14.9,29.6c-16.3,5.3-32.9,10.8-49.6,16.5c-4.6,1.6-8.4,2.3-11.4,2.1
	c-8.2-0.3-14.6-4.2-19.2-11.6c-0.3-0.5-0.7-0.6-1.2-0.4c-3.7,1.4-6.2,3.3-8.6,6.5c-9.4,12.7-22.8,22.3-36.5,31.4
	c-0.4,0.3-0.4,0.6,0,0.9c7.7,6.2,11.8,14.1,12.3,23.9c0.5,9.2-3.3,18.8-9.9,24.9c-9.7,8.8-21,11.2-33.7,7c-0.4-0.1-0.7,0-0.7,0.5
	c-0.3,7.2-2.2,13.1-5.6,17.8c-9.8,13.1-22.9,17-39.3,11.5C379.9,347.1,379.7,347.3,379.7,347.8z M161.2,55
	c2.3-4.5,0.6-10.1-3.9-12.4c0,0,0,0,0,0l-50.1-26c-4.5-2.3-10.1-0.6-12.4,3.9c0,0,0,0,0,0L14.7,175.2c-2.3,4.5-0.6,10.1,3.9,12.4
	c0,0,0,0,0,0l50.1,26c4.5,2.3,10.1,0.6,12.4-3.9c0,0,0,0,0,0L161.2,55z M531.2,26.2c-1.6-4.8-6.8-7.4-11.6-5.8L466,38.1
	c-4.8,1.6-7.4,6.8-5.8,11.6L514.8,215c1.6,4.8,6.8,7.4,11.6,5.8l53.6-17.7c4.8-1.6,7.4-6.8,5.8-11.6L531.2,26.2z M262.9,153.5
	c0.8-15.4,15.7-34,32.9-29.2c2.4,0.7,5.8,2.9,10.2,6.7c43.9,38.1,90.3,78.1,139.3,120.2c0.4,0.3,1,0.4,1.4,0.1
	c12.9-8,27.2-17.7,35.8-29.8c4.1-5.7,9.4-9.6,15.8-11.6c0.2-0.1,0.4-0.3,0.3-0.6c0,0,0,0,0,0L451.5,67.3c-0.1-0.3-0.4-0.4-0.6-0.3
	c0,0,0,0,0,0c-5.3,1.8-11,3.7-16.8,5.8c-5.9,2.1-11.7,2.5-17.9,2c-9-0.7-18.8-2.2-29.4-4.4c-25.5-5.3-49.8-9.8-74.8-11.3
	c-11.2-0.7-20.9,2.3-29.2,9c-18.6,14.9-36.6,30.4-54.2,46.6c-7.2,6.6-8.6,13.2-7.8,23c1.5,19.9,2.2,41.2,0,61.1
	c-0.2,1.7,0.4,2.8,1.9,3.5c12,5.6,24.6-6,30-15.5C258.8,175.7,262.3,164.6,262.9,153.5z M339.4,247.5c-9.1-7.8,0.7-19.8,9.3-12.3
	c24.8,21.3,49.9,43.1,75.4,65.2c4.2,3.7,9,5.8,14.7,5.4c13-1,20.6-14.8,15.3-26.5c-1.1-2.3-3.3-4.9-6.6-7.8
	c-52.6-45.5-103.8-89.7-153.7-132.8c-1.8-1.6-3.7-1.9-5.6-1c-4.9,2.3-8.4,6.1-10.3,11.3c-1.3,3.4-1.1,6.9-1.6,10.4
	c-1.4,11.1-5,21.9-10.8,32.6c-9.2,16.9-29.1,32.2-49,22.6c-4.1-1.9-7.1-5.6-8.6-9.8c-0.9-2.6-1.1-5.9-0.6-10
	c2.2-18.6,0.9-39.6-0.3-59.5c-0.8-12.3,3.4-22.6,12.5-30.8c6.1-5.5,11.9-10.7,17.5-15.6c0.9-0.7,0.7-1.1-0.4-1
	c-9.2,0.4-18.5,0.4-27.8-0.1c-6.3-0.3-11.3-1.4-14.8-3.2c-8.2-4.2-16.5-8.6-24.9-13.3c-0.3-0.1-0.6-0.1-0.7,0.2c0,0,0,0,0,0
	L98.6,205.8c-0.2,0.3,0,0.7,0.3,0.9c0,0,0,0,0,0c7.7,3.6,13.1,6.5,17,14.4c2.9,6,7,11.7,12.2,17.3c0.2,0.3,0.5,0.3,0.7,0
	c3.2-3.7,6.3-8.2,10.1-11c15.7-11.1,36.2-2.8,43.2,14.3c0.2,0.5,0.5,0.5,0.8,0.2c7.7-7,16.2-9.5,25.6-7.5
	c16.2,3.4,25.9,19,21.9,35.1c-0.1,0.6,0.1,0.9,0.7,0.9c24.1,0.7,37.1,28.3,21.2,47.1c-0.1,0.1-0.1,0.3,0,0.4c0,0,0.1,0.1,0.1,0.1
	c20.2,4.1,33.5,28.1,18.1,45.3c-0.3,0.3-0.3,0.9,0.1,1.2c0,0,0,0,0,0c6.4,5.6,12.4,10.8,18.1,15.7c13.7,11.7,33.2-3.3,26.1-19.6
	c-1-2.3-3.1-4.8-6.3-7.5c-11.2-9.5-22.2-19-33-28.5c-4.6-4-5.3-8.1-2-12c2.7-3.3,7.6-3.2,10.6-0.6c15.7,13.4,33.3,28.5,52.8,45.5
	c4.4,3.8,9,6.1,15.1,5c5.4-0.9,9.4-3.9,12-8.8c4.4-8.1,1.5-15.9-5.3-21.7c-19-16.3-37.3-32.1-54.9-47.5c-7.6-6.6,2.2-18.4,10.8-10.9
	c21.8,18.9,43.2,37.4,64.2,55.7c3.4,2.9,6.2,4.8,8.5,5.6c15,5.5,29-10.7,22.2-24.9c-1.1-2.3-3-4.6-5.7-6.9
	C381.9,284.3,360.4,265.7,339.4,247.5z M167,259.1c4.6-5.5,3.9-13.7-1.5-18.3l-2.1-1.8c-5.5-4.6-13.7-3.9-18.3,1.5l-12.4,14.7
	c-4.6,5.5-3.9,13.7,1.5,18.3l2.1,1.8c5.5,4.6,13.7,3.9,18.3-1.5L167,259.1z M214.7,271.3c4.9-6.1,4-15.1-2.1-20.1c0,0,0,0,0,0
	l-0.7-0.5c-6.1-4.9-15.1-4-20.1,2.1l-29,35.9c-4.9,6.1-4,15.1,2.1,20.1c0,0,0,0,0,0l0.7,0.5c6.1,4.9,15.1,4,20.1-2.1L214.7,271.3z
	 M242.5,307.9c5-6,4.1-15-1.9-20h0l-0.8-0.6c-6-5-15-4.1-20,1.9c0,0,0,0,0,0l-23,28c-5,6-4.1,15,1.9,20h0l0.8,0.6c6,5,15,4.1,20-1.9
	c0,0,0,0,0,0L242.5,307.9z M260.4,354.3c4.5-5.3,3.9-13.3-1.4-17.8l-2.5-2.1c-5.3-4.5-13.3-3.9-17.8,1.4l-7.3,8.5
	c-4.5,5.3-3.9,13.3,1.4,17.8l0,0l2.5,2.1c5.3,4.5,13.3,3.9,17.8-1.4l0,0L260.4,354.3z"/>
</svg>
