<?xml version="1.0" encoding="utf-8"?>
<!-- Generator: Adobe Illustrator 26.1.0, SVG Export Plug-In . SVG Version: 6.00 Build 0)  -->
<svg version="1.1" id="Capa_1" xmlns="http://www.w3.org/2000/svg" xmlns:xlink="http://www.w3.org/1999/xlink" x="0px" y="0px"
	 viewBox="0 0 600 294" style="enable-background:new 0 0 600 294;" xml:space="preserve">
<style type="text/css">
	.st0{opacity:0.9;}
	.st1{fill:#FFFFFF;}
</style>
<g class="st0">
	<path class="st1" d="M487.1,3c52.1,10.3,99.2,55.1,102.6,109.9c0.7,12.1-1.3,24.4-6,37c-12,31.6-39.4,53.5-72.2,61.4
		c-11.3,2.7-22.4,2.6-33.7,2.1c-2.1-0.1-2.1-0.5-0.2-1.3c24.6-10,39.4-27.1,44.4-51.5c3.9-18.7,0.8-35.8-9.1-51.3
		c-23.9-37.4-75.7-44.4-107.5-13c-13.1,13-25.6,25.4-37.5,37.3c-0.8,0.8-2.1,0.8-2.9,0l0,0l-52.3-51.8c-0.5-0.5-0.5-1.1,0-1.6
		c12.8-12.6,25-24.8,36.7-36.7C384.9,7.3,437.6-6.8,487.1,3z"/>
	<path class="st1" d="M172.6,80.9C107.8,42.8,27.2,71.3,0.3,140.4c-0.4,1.1-0.6,1.1-0.5-0.1C3.1,68.1,58,10.4,129.3,1.8
		c35.1-4.2,71.6,5.2,100.4,25.1c8.2,5.7,19.6,15.8,34.2,30.4c47.4,47.3,94.7,93.8,141.9,139.3c29.8,28.7,72.4,40.1,113.1,29.5
		c36.7-9.6,67.5-36.8,80.4-72.6c0.7-1.8,0.9-1.8,0.8,0.2c-4.4,75.4-61.7,133.1-136.4,139c-7.5,0.6-14.8,0.5-22-0.2
		c-25.8-2.5-48.8-10.4-68.8-23.7c-8.5-5.6-19.3-14.9-32.2-27.6C296,197.1,251,152.8,205.8,108.4C192.2,95.1,181.1,85.9,172.6,80.9z"
		/>
	<path class="st1" d="M137.2,216.7c14,1.7,27.3-0.5,40-6.6c7.1-3.4,16.8-11.3,29-23.5c8.4-8.4,17.2-17.3,26.4-26.5
		c0.6-0.6,1.6-0.6,2.3,0l52.8,51.8c0.6,0.6,0.6,1.5,0,2.1l0,0c-10.4,10-20.9,20.4-31.5,31.1c-11.3,11.5-22.1,20.5-32.4,26.8
		c-34.5,21.1-77.9,27.7-116.9,17.2c-50.5-13.7-102-60.9-97-117.9c1.9-21.6,11.1-43.1,26.3-58.8c23-23.9,51.6-34.5,85.7-31.9
		c2.1,0.2,2.2,0.6,0.2,1.4c-16.7,6.5-29.2,17.2-37.3,32.1C61.5,156.6,88.6,210.8,137.2,216.7z"/>
</g>
</svg>
