<svg xmlns="http://www.w3.org/2000/svg" viewBox="0 0 20.01 20"><defs><style>.cls-1{fill:#fb8c00;}</style></defs><g id="Capa_2" data-name="Capa 2"><g id="TEAM"><g id="Team_3" data-name="Team 3"><path class="cls-1" d="M19.85,5A5.35,5.35,0,0,0,18.23,1.6,5.6,5.6,0,0,0,14.56.11a73.58,73.58,0,0,0-9.9.11A5.07,5.07,0,0,0,.33,4.11C-.14,5.81,0,13.66.23,15.34a5.08,5.08,0,0,0,4,4.37c1.58.4,9.34.35,11.08.07a5.08,5.08,0,0,0,4.38-4C20.17,14,20,6.59,19.85,5ZM18,15a3.39,3.39,0,0,1-3.19,3c-1.61.17-8.82.27-10.32-.15A3.28,3.28,0,0,1,2,15.07,68,68,0,0,1,2,5,3.38,3.38,0,0,1,5.18,2,70.35,70.35,0,0,1,15,2a3.4,3.4,0,0,1,3,3.19A73.37,73.37,0,0,1,18,15ZM10,4.87A5.13,5.13,0,1,0,15.14,10,5.11,5.11,0,0,0,10,4.87Zm0,8.45A3.32,3.32,0,1,1,13.33,10,3.32,3.32,0,0,1,10,13.32Zm6.57-8.64a1.21,1.21,0,1,1-1.19-1.21A1.2,1.2,0,0,1,16.54,4.68Z"/></g></g></g></svg>