<?xml version="1.0" encoding="UTF-8" standalone="no"?>
<!DOCTYPE svg PUBLIC "-//W3C//DTD SVG 1.1//EN" "http://www.w3.org/Graphics/SVG/1.1/DTD/svg11.dtd">
<svg xmlns="http://www.w3.org/2000/svg" version="1.1" viewBox="0.00 0.00 512.00 512.00">
<path fill="#000000" d="
  M 512.00 476.07
  L 512.00 478.52
  Q 509.97 484.43 505.19 484.64
  Q 502.70 484.75 497.91 482.58
  Q 439.20 455.99 380.49 429.81
  A 0.71 0.71 0.0 0 0 379.91 429.81
  Q 319.79 456.81 259.03 484.08
  Q 255.99 485.45 253.02 484.11
  Q 192.84 457.11 132.32 429.90
  A 1.33 1.33 0.0 0 0 131.22 429.90
  Q 73.18 455.95 15.08 482.06
  Q 9.50 484.57 7.17 484.57
  Q 1.93 484.58 0.00 478.20
  L 0.00 476.01
  Q 3.04 460.10 5.88 444.17
  Q 6.74 439.29 8.12 437.62
  C 12.07 432.82 19.89 434.87 21.07 440.90
  Q 21.47 442.98 20.92 445.73
  Q 19.08 455.06 17.57 464.13
  A 0.19 0.19 0.0 0 0 17.84 464.33
  L 124.19 416.60
  Q 124.63 416.41 124.66 415.93
  L 132.41 315.79
  A 0.21 0.21 0.0 0 0 132.10 315.59
  L 35.71 366.53
  A 1.19 1.16 -9.4 0 0 35.11 367.35
  Q 31.23 388.39 26.86 412.81
  Q 26.40 415.40 25.08 417.17
  C 22.84 420.17 18.60 420.94 15.41 418.99
  C 12.17 417.01 11.41 413.83 12.04 410.36
  Q 26.40 330.79 40.30 254.42
  C 40.76 251.89 42.53 249.71 44.72 248.49
  Q 97.41 219.18 145.16 192.61
  Q 148.85 190.55 152.42 192.40
  Q 161.10 196.88 170.19 201.63
  Q 171.07 202.09 170.59 201.22
  C 158.15 178.56 149.94 151.97 151.67 125.75
  Q 153.83 93.10 174.14 67.25
  C 191.61 45.02 217.46 30.97 245.19 27.98
  C 287.64 23.41 327.82 44.73 348.46 81.72
  C 361.67 105.37 364.57 132.71 358.40 159.54
  C 355.13 173.76 349.71 187.40 342.74 200.59
  Q 342.29 201.44 343.13 200.99
  Q 351.51 196.52 359.86 192.31
  Q 363.26 190.59 366.84 192.59
  Q 420.75 222.58 467.52 248.62
  C 470.43 250.24 471.38 252.70 472.01 256.09
  Q 474.25 268.22 476.43 280.50
  C 478.24 290.66 463.60 293.41 461.67 283.02
  Q 459.58 271.76 457.63 260.85
  A 1.28 1.27 -80.9 0 0 457.00 259.97
  L 448.30 255.13
  Q 447.79 254.84 447.21 254.97
  L 382.71 269.34
  Q 382.00 269.50 382.48 270.05
  L 479.24 382.47
  Q 479.75 383.06 479.62 382.29
  Q 473.69 349.03 467.54 316.03
  C 466.74 311.70 466.74 307.81 470.72 305.45
  C 475.41 302.65 481.08 305.73 481.98 310.75
  Q 496.86 393.40 512.00 476.07
  Z
  M 215.08 52.55
  Q 187.65 66.75 174.27 95.77
  C 153.62 140.57 177.40 190.84 204.92 226.26
  Q 227.70 255.58 256.14 279.99
  Q 256.48 280.29 256.83 280.00
  Q 285.60 255.36 308.81 225.32
  C 325.81 203.31 339.94 177.50 344.92 150.02
  C 351.96 111.19 334.90 73.70 300.65 53.99
  Q 291.43 48.68 281.80 46.01
  Q 246.58 36.23 215.08 52.55
  Z
  M 184.76 226.15
  C 175.22 221.32 165.89 216.32 156.12 211.24
  Q 155.59 210.97 155.55 211.56
  L 152.31 253.32
  A 0.35 0.34 -84.0 0 0 152.61 253.70
  L 215.27 262.68
  Q 216.17 262.81 215.56 262.14
  C 209.37 255.23 203.23 248.59 197.66 241.39
  Q 193.33 235.79 188.57 229.46
  Q 186.89 227.23 184.76 226.15
  Z
  M 326.86 226.41
  A 0.31 0.31 0.0 0 0 326.76 226.49
  L 315.66 241.08
  A 0.31 0.31 0.0 0 0 316.03 241.55
  L 357.18 223.46
  A 0.31 0.31 0.0 0 0 357.36 223.15
  L 356.45 211.43
  A 0.31 0.31 0.0 0 0 355.99 211.18
  L 326.86 226.41
  Z
  M 54.63 260.18
  A 0.32 0.32 0.0 0 0 54.47 260.40
  L 46.86 302.35
  A 0.32 0.32 0.0 0 0 47.32 302.69
  L 136.93 255.46
  A 0.32 0.32 0.0 0 0 137.10 255.20
  L 140.36 213.02
  A 0.32 0.32 0.0 0 0 139.89 212.72
  L 54.63 260.18
  Z
  M 372.06 212.71
  A 0.30 0.30 0.0 0 0 371.62 213.00
  L 372.07 218.41
  A 0.30 0.30 0.0 0 0 372.43 218.68
  L 379.14 217.20
  A 0.30 0.30 0.0 0 0 379.22 216.65
  L 372.06 212.71
  Z
  M 427.28 244.01
  A 0.30 0.30 0.0 0 0 427.36 243.46
  L 399.41 227.94
  A 0.30 0.30 0.0 0 0 399.20 227.91
  L 373.53 233.88
  A 0.30 0.30 0.0 0 0 373.30 234.20
  L 374.90 255.34
  A 0.30 0.30 0.0 0 0 375.27 255.61
  L 427.28 244.01
  Z
  M 292.18 268.42
  Q 290.59 269.12 289.31 270.39
  Q 277.21 282.48 264.04 293.62
  Q 263.54 294.04 263.54 294.69
  L 263.54 301.50
  Q 263.54 302.22 264.21 301.93
  Q 294.40 288.82 324.00 275.91
  C 326.81 274.69 329.84 275.02 332.23 276.88
  Q 347.95 289.15 362.86 300.79
  A 0.31 0.31 0.0 0 0 363.35 300.52
  L 358.64 239.77
  A 0.38 0.37 -14.0 0 0 358.11 239.46
  Q 322.88 254.94 292.18 268.42
  Z
  M 181.38 309.92
  C 177.65 304.04 181.82 297.24 188.68 298.06
  Q 219.09 301.69 247.85 305.14
  Q 248.50 305.22 248.50 304.57
  L 248.50 293.94
  A 1.58 1.57 -69.6 0 0 247.96 292.75
  L 234.42 280.87
  Q 234.04 280.53 233.53 280.46
  L 151.60 268.75
  A 0.46 0.44 5.4 0 0 151.09 269.16
  L 148.70 299.84
  Q 148.66 300.41 148.97 300.88
  L 247.98 451.34
  Q 248.50 452.13 248.50 451.19
  L 248.50 416.31
  Q 248.50 415.81 248.23 415.39
  Q 214.77 362.66 181.38 309.92
  Z
  M 43.48 321.71
  A 0.32 0.32 0.0 0 0 43.31 321.93
  L 38.70 347.36
  A 0.32 0.32 0.0 0 0 39.16 347.70
  L 133.65 297.77
  A 0.32 0.32 0.0 0 0 133.82 297.51
  L 135.68 273.67
  A 0.32 0.32 0.0 0 0 135.21 273.36
  L 43.48 321.71
  Z
  M 491.76 449.03
  L 485.22 412.95
  Q 485.10 412.28 484.65 411.77
  L 378.08 287.97
  Q 377.37 287.15 377.46 288.22
  L 379.49 314.05
  Q 379.53 314.66 379.93 315.13
  L 491.15 449.31
  Q 492.00 450.34 491.76 449.03
  Z
  M 326.60 291.56
  A 0.68 0.68 0.0 0 0 325.91 291.47
  L 263.94 318.44
  A 0.68 0.68 0.0 0 0 263.53 319.07
  L 263.52 410.31
  A 0.68 0.68 0.0 0 0 263.71 410.78
  L 300.23 448.63
  A 0.68 0.68 0.0 0 0 301.00 448.77
  L 371.91 416.95
  A 0.68 0.68 0.0 0 0 372.31 416.27
  L 364.99 321.80
  A 0.68 0.68 0.0 0 0 364.73 321.32
  L 326.60 291.56
  Z
  M 248.49 320.62
  A 0.31 0.31 0.0 0 0 248.22 320.32
  L 202.83 314.87
  A 0.31 0.31 0.0 0 0 202.53 315.34
  L 247.95 386.92
  A 0.31 0.31 0.0 0 0 248.52 386.75
  L 248.49 320.62
  Z
  M 139.68 416.52
  A 0.33 0.33 0.0 0 0 139.87 416.85
  L 234.56 459.35
  A 0.33 0.33 0.0 0 0 234.97 458.86
  L 147.30 325.67
  A 0.33 0.33 0.0 0 0 146.70 325.82
  L 139.68 416.52
  Z
  M 476.88 456.60
  A 0.31 0.31 0.0 0 0 477.25 456.12
  L 382.13 341.38
  A 0.31 0.31 0.0 0 0 381.59 341.60
  L 387.41 416.22
  A 0.31 0.31 0.0 0 0 387.59 416.48
  L 476.88 456.60
  Z
  M 263.52 465.08
  A 0.33 0.33 0.0 0 0 263.98 465.38
  L 285.57 455.70
  A 0.33 0.33 0.0 0 0 285.67 455.17
  L 264.07 432.80
  A 0.33 0.33 0.0 0 0 263.50 433.03
  L 263.52 465.08
  Z"
/>
<path fill="#000000" d="
  M 272.67 105.59
  C 268.05 102.64 262.49 101.32 256.94 100.99
  Q 251.52 100.67 249.65 96.29
  C 248.11 92.69 249.79 88.24 253.43 86.71
  Q 255.37 85.90 257.78 86.03
  Q 276.52 87.07 289.11 99.59
  Q 298.17 108.61 301.39 121.18
  C 305.51 137.25 300.46 154.46 288.39 165.87
  Q 274.38 179.12 255.12 178.61
  Q 237.39 178.15 224.19 165.53
  Q 217.77 159.38 214.10 150.99
  Q 210.14 141.92 210.20 132.77
  Q 210.33 113.17 223.67 99.65
  C 226.34 96.95 231.20 97.11 233.95 99.89
  C 236.88 102.82 236.76 107.03 234.19 110.22
  C 232.49 112.32 230.58 114.40 229.31 116.77
  Q 225.00 124.78 225.18 132.43
  Q 225.56 148.48 238.20 157.74
  C 250.22 166.55 267.48 165.60 278.23 154.85
  Q 290.08 143.00 287.20 126.66
  Q 284.86 113.38 272.67 105.59
  Z"
/>
</svg>
