<?xml version="1.0" encoding="UTF-8" standalone="no"?>
<!DOCTYPE svg PUBLIC "-//W3C//DTD SVG 1.1//EN" "http://www.w3.org/Graphics/SVG/1.1/DTD/svg11.dtd">
<svg xmlns="http://www.w3.org/2000/svg" version="1.1" viewBox="0.00 0.00 512.00 512.00">
<path fill="#000000" d="
  M 306.89 215.18
  C 296.31 238.25 271.36 251.64 246.45 247.11
  C 220.16 242.33 201.14 220.55 200.13 193.98
  Q 199.89 187.47 199.93 178.47
  Q 199.97 169.72 201.60 162.93
  C 211.17 122.96 259.60 106.60 291.40 132.60
  Q 309.01 147.01 311.67 170.73
  Q 312.17 175.25 312.09 183.71
  Q 312.02 190.75 311.68 196.69
  Q 311.16 205.87 306.89 215.18
  Z
  M 243.23 229.87
  C 268.90 238.47 295.96 219.46 295.97 192.22
  C 295.97 184.39 296.62 175.41 295.16 168.24
  Q 291.72 151.32 276.77 141.87
  C 268.28 136.50 256.87 134.67 247.23 137.02
  Q 227.82 141.76 219.37 160.02
  C 215.27 168.90 216.11 178.00 215.94 187.32
  Q 215.82 194.15 216.69 198.97
  C 219.22 213.18 229.16 225.15 243.23 229.87
  Z"
/>
<path fill="#000000" d="
  M 87.63 276.43
  Q 94.42 279.71 103.21 279.92
  C 115.09 280.21 114.37 296.17 103.73 295.98
  C 72.99 295.42 48.69 271.53 48.05 240.74
  Q 47.86 231.79 48.01 224.16
  Q 48.50 200.18 64.61 184.33
  C 83.68 165.58 112.65 162.63 135.10 177.47
  C 151.23 188.14 160.18 206.14 159.99 225.58
  C 159.91 233.16 160.50 241.41 159.20 249.01
  Q 154.96 273.64 133.22 287.82
  C 122.88 294.57 114.45 280.44 123.72 274.85
  C 138.17 266.12 144.55 252.50 144.03 236.02
  C 143.85 230.35 144.36 224.74 143.63 219.14
  C 139.88 190.26 107.55 174.30 82.70 190.22
  C 69.22 198.86 63.31 212.53 63.95 228.42
  C 64.15 233.45 63.63 238.88 64.23 243.81
  Q 67.00 266.48 87.63 276.43
  Z"
/>
<path fill="#000000" d="
  M 409.45 184.07
  C 386.73 183.25 367.94 201.46 368.03 224.24
  C 368.06 232.29 367.28 241.27 369.03 248.85
  C 371.48 259.46 378.23 269.08 387.90 274.56
  C 392.92 277.41 393.66 283.81 389.39 287.71
  C 385.92 290.88 381.64 289.79 377.96 287.31
  Q 354.35 271.38 352.16 243.41
  Q 351.84 239.32 351.95 226.59
  Q 352.03 217.21 353.64 210.67
  C 358.46 191.11 373.26 175.85 392.51 170.23
  C 426.46 160.31 460.07 184.15 463.58 218.25
  Q 464.19 224.18 464.13 231.76
  Q 464.05 240.18 463.66 244.73
  Q 461.89 265.13 447.69 279.44
  Q 433.14 294.09 411.15 295.93
  Q 406.77 296.30 404.32 295.04
  C 400.01 292.83 398.69 287.34 401.53 283.33
  C 403.19 280.99 405.73 280.03 408.53 279.95
  C 430.27 279.38 447.71 262.36 447.96 240.31
  Q 448.05 232.55 447.98 224.20
  C 447.79 202.53 431.26 184.86 409.45 184.07
  Z"
/>
<path fill="#000000" d="
  M 341.26 291.19
  C 338.15 284.94 332.14 280.29 325.27 278.82
  Q 300.35 273.47 276.86 272.39
  Q 260.86 271.66 242.44 272.09
  Q 216.61 272.69 188.93 278.34
  C 180.55 280.05 174.40 283.84 170.47 291.55
  C 167.73 296.94 160.30 297.52 156.82 292.61
  C 153.97 288.60 155.68 284.58 158.10 280.86
  Q 163.91 271.93 172.94 266.98
  Q 178.79 263.78 191.91 261.41
  Q 214.62 257.30 235.18 256.36
  Q 247.59 255.79 266.49 256.01
  Q 294.98 256.33 326.81 262.74
  Q 345.19 266.43 354.66 282.13
  Q 356.71 285.54 356.60 288.43
  C 356.27 296.72 345.10 298.87 341.26 291.19
  Z"
/>
<path fill="#000000" d="
  M 0.00 385.17
  L 0.00 346.95
  Q 3.01 324.44 21.30 314.93
  Q 27.58 311.66 37.12 309.92
  Q 58.84 305.95 75.89 304.79
  Q 93.31 303.61 116.04 304.04
  Q 141.23 304.51 169.71 309.68
  Q 180.84 311.70 187.15 315.07
  C 196.89 320.27 204.47 330.02 206.91 340.87
  Q 208.12 346.28 208.06 353.28
  Q 207.94 368.29 208.01 383.59
  C 208.06 394.55 192.14 394.65 192.05 383.95
  Q 191.91 367.58 192.07 353.08
  C 192.18 343.24 189.21 335.34 181.05 330.03
  Q 176.92 327.33 167.94 325.63
  C 138.55 320.05 109.04 318.90 80.21 320.54
  Q 60.65 321.66 37.58 326.19
  C 27.78 328.11 20.66 332.87 17.30 342.26
  Q 15.82 346.40 15.92 353.93
  Q 16.10 368.75 15.97 383.67
  C 15.89 393.70 2.33 395.10 0.00 385.17
  Z"
/>
<path fill="#000000" d="
  M 512.00 347.31
  L 512.00 385.25
  Q 509.49 392.82 502.88 391.78
  C 498.77 391.14 496.09 388.17 496.04 383.96
  Q 495.87 369.36 496.08 354.19
  Q 496.18 346.81 494.71 342.44
  Q 492.02 334.37 484.80 329.87
  Q 480.60 327.24 471.98 325.63
  C 440.98 319.85 410.27 318.73 380.11 320.84
  Q 363.31 322.01 342.59 325.97
  Q 334.92 327.44 330.95 330.03
  Q 324.13 334.49 321.41 341.98
  Q 319.82 346.38 319.92 354.13
  Q 320.12 368.67 319.96 383.67
  C 319.84 394.84 303.87 394.56 303.98 383.44
  Q 304.12 370.12 303.92 356.15
  Q 303.76 344.75 305.70 338.49
  C 310.01 324.63 321.17 314.33 335.27 311.23
  Q 364.86 304.73 396.09 304.04
  C 425.05 303.40 454.14 305.06 481.98 311.56
  C 483.50 311.91 485.27 312.34 486.67 312.94
  Q 509.08 322.57 512.00 347.31
  Z"
/>
</svg>
