<svg xmlns="http://www.w3.org/2000/svg" viewBox="0 0 24.57 20"><defs><style>.cls-1{fill:#fb8c00;fill-rule:evenodd;}</style></defs><g id="Capa_2" data-name="Capa 2"><g id="TEAM"><g id="Team_3" data-name="Team 3"><path class="cls-1" d="M7.45,15.65a5.07,5.07,0,0,1-4.7-3.51,4.82,4.82,0,0,0,2.17-.06l.07,0A5,5,0,0,1,1.71,9.73,4.92,4.92,0,0,1,1,7.05a5.08,5.08,0,0,0,2.25.61A5.09,5.09,0,0,1,1.68.94,14.46,14.46,0,0,0,12.1,6.21c0-.2-.06-.37-.08-.55a4.91,4.91,0,0,1,.73-3.3A4.86,4.86,0,0,1,16.18.08,4.89,4.89,0,0,1,20.6,1.49a.27.27,0,0,0,.27.08A10.41,10.41,0,0,0,23.81.44l.06,0h0a5.12,5.12,0,0,1-2.16,2.75,9.67,9.67,0,0,0,2.81-.76s0,0,0,0c-.19.26-.37.51-.58.76a9.73,9.73,0,0,1-1.83,1.74c-.06,0-.09.09-.08.16A15.21,15.21,0,0,1,22,7.31a14.64,14.64,0,0,1-1.3,4.5,14.31,14.31,0,0,1-2.73,4A13.5,13.5,0,0,1,11,19.66,14.67,14.67,0,0,1,8.2,20,14.23,14.23,0,0,1,.12,17.82L0,17.75a10.21,10.21,0,0,0,5.05-.7A9.84,9.84,0,0,0,7.45,15.65Z"/></g></g></g></svg>