<?xml version="1.0" encoding="utf-8"?>
<!-- Generator: Adobe Illustrator 26.1.0, SVG Export Plug-In . SVG Version: 6.00 Build 0)  -->
<svg version="1.1" id="Capa_1" xmlns="http://www.w3.org/2000/svg" xmlns:xlink="http://www.w3.org/1999/xlink" x="0px" y="0px"
	 viewBox="0 0 1000 250.9" style="enable-background:new 0 0 1000 250.9;" xml:space="preserve">
<style type="text/css">
	.st0{opacity:0.2;}
	.st1{fill:#DAB33F;}
	.st2{fill:#FB8C00;}
	.st3{fill:#B82436;}
	.st4{fill:#CC9531;}
</style>
<g>
	<g class="st0">
		<path d="M234,13.2l6.3-10.9c0.2-0.3,0.6-0.4,0.9-0.2c0.1,0.1,0.2,0.1,0.2,0.2l6.3,10.9c0.2,0.3,0.1,0.7-0.2,0.9
			c-0.1,0.1-0.2,0.1-0.3,0.1l-12.6,0c-0.4,0-0.7-0.3-0.7-0.6C233.9,13.4,234,13.3,234,13.2z"/>
		<path d="M942.5,87.6c-1.4,0.6-2.4,1.2-3,1.7c-0.4,0.4-0.6,0.8-0.6,1.4l0,26.4c0,0.5-0.2,0.8-0.7,0.9l-1.5,0.3l-38.9-37.9
			c-0.2-0.2-0.5-0.2-0.7,0c-0.1,0.1-0.1,0.2-0.1,0.4l0,94.5c0,0.4-0.4,0.8-0.8,0.8l-26.3,0c-0.5,0-0.8-0.3-0.8-0.8l0-159.6
			c0-0.1,0.1-0.2,0.2-0.2c0,0,0.1,0,0.1,0L942.5,87.6z"/>
		<path d="M758.1,18.3l-1.1,25.8c-6.6,0.8-11.3,1.7-14.1,2.8c-22.9,9.2-36.3,29-35.5,53.5c0.2,8.4,1.6,15.4,4,21.1
			c6.2,14.5,17,24.3,32.4,29.7c-1.3,6.8-1.5,12.6-0.5,17.3c0.7,3.5,1,6,1.1,7.5c0,0.2,0,0.3-0.2,0.4c0,0-0.1,0.1-0.1,0.1
			c-0.4,0.1-0.5,0.3-0.1,0.6c0.3,0.2,0.4,0.5,0.4,0.8c-17.3-3.6-32.9-12.6-44.6-25.6c-17.9-20-24.6-47.3-18-73.1
			c3.3-12.9,9.8-24.7,18.9-34.5C715.4,28.7,736.1,19.2,758.1,18.3z"/>
		<path d="M758.1,18.3c9.7-0.4,19.3,0.9,28.5,3.8l-0.8,27.4c-8.8-4.3-18.4-6.1-28.9-5.4L758.1,18.3z"/>
		<path d="M62.3,81.7l-1.6,0.7c-0.4,0.2-0.5,0.4-0.1,0.7c0.8,0.7,1.1,1.7,1.1,2.8c-0.2,5.4-0.4,10.6-0.5,15.7c0,0.3,0.1,0.6,0.2,0.9
			c0.3,0.6,0.3,1.1,0.2,1.8c-0.1,0.5-0.4,0.9-0.8,1.2c-0.6,0.4-1.2,1-1.6,1.6l-28.4,0.1c-0.5,0-0.8,0.3-0.8,0.8l0.1,67.2
			c0,0.5-0.4,1-1,1l-26-0.1c-0.7,0-1-0.3-1-1L2,22.1c0-0.5,0.4-0.8,0.8-0.8l26.3,0.1c0.5,0,0.8,0.4,0.8,0.8l0,0l0,59
			c0,0.3,0.2,0.5,0.5,0.5L62.3,81.7z"/>
		<path d="M59.1,107.1c0.5-0.7,1-1.2,1.6-1.6c0.4-0.3,0.7-0.7,0.8-1.2c0.1-0.6,0.1-1.2-0.2-1.8c-0.1-0.3-0.2-0.6-0.2-0.9
			c0.1-5.1,0.3-10.3,0.5-15.7c0.1-1.2-0.3-2.1-1.1-2.8c-0.4-0.3-0.3-0.6,0.1-0.7l1.6-0.7l40.5,0c0.6,0,1.2-0.5,1.2-1.2l0,0l0.1-58.3
			c0-0.5,0.2-0.7,0.7-0.7l26.3,0c0.3,0,0.4,0.1,0.4,0.4l0,153.5c0,0.5-0.4,0.8-0.8,0.8h0l-25.5,0c-0.7,0-1.2-0.5-1.2-1.2V108
			c0-0.5-0.4-0.9-0.9-0.9L59.1,107.1z"/>
		<path d="M424.2,23.9l-1.2,0.6c-0.6,0.3-0.7,0.6-0.4,1.2c0.3,0.4,0.5,0.8,0.7,1.2c0.3,0.5,0.3,1,0.1,1.5l-1.2,3.5
			c-0.2,0.5-0.2,1-0.1,1.5c1.6,6.2,1.7,12.9,0.3,20c-4.3-4.3-10-6.5-17.4-6.7c-10-0.1-20-0.2-29.9-0.1c-0.3,0-0.4,0.1-0.4,0.4v48.1
			c0,0.6,0.3,0.9,0.9,0.9l30.4-0.1c1,2.2,1,4,0.1,5.2c-0.6,0.8-0.6,1.5-0.1,2c-0.1,4-0.8,7.9-0.6,11.8c0.1,1-0.2,2-0.7,3
			c-0.2,0.4-0.3,0.7-0.3,1.1c-0.1,1-0.6,2.3-1.5,3.8c-0.2-0.4-0.6-0.9-1.1-1.3c-0.4-0.4-0.9-0.5-1.5-0.5l-25.2,0
			c-0.3,0-0.4,0.1-0.4,0.4l0.1,53.8c0,0.4-0.4,0.8-0.8,0.8l-26.3,0c-0.7,0-1.2-0.5-1.2-1.2l0-153c0-0.3,0.2-0.5,0.5-0.5
			c21.4,0,42.7,0,64.2,0C414.7,21.4,419.1,22.2,424.2,23.9z"/>
		<path d="M488.9,21.4h27.4c0.3,0,0.5,0.2,0.5,0.5v153.7c0,0.3-0.2,0.5-0.5,0.5h-27.4c-0.3,0-0.5-0.2-0.5-0.5V21.8
			C488.4,21.6,488.6,21.4,488.9,21.4z"/>
		<path d="M669.8,151.1l0,24.4c0,0.3-0.2,0.5-0.5,0.5c0,0,0,0,0,0l-130,0c-0.3,0-0.5-0.2-0.5-0.5c0-0.1,0-0.2,0.1-0.3l86.4-128
			c0.2-0.2,0.1-0.6-0.1-0.7c-0.1-0.1-0.2-0.1-0.3-0.1l-69.7,0.1c-0.3,0-0.5-0.2-0.5-0.5l0,0l0-24.1c0-0.3,0.2-0.5,0.5-0.5l0,0
			l117.4,0c0.3,0,0.5,0.2,0.5,0.5c0,0.1,0,0.2-0.1,0.3l-85.8,127.5c-0.2,0.2-0.1,0.6,0.2,0.7c0.1,0.1,0.2,0.1,0.3,0.1l81.7,0
			C669.6,150.6,669.8,150.8,669.8,151.1z"/>
		<path d="M936.5,118.2l1.5-0.3c0.5-0.1,0.7-0.4,0.7-0.9l0-26.4c0-0.5,0.2-1,0.6-1.4c0.6-0.6,1.6-1.2,3-1.7l30.9,30.2
			c0.2,0.2,0.4,0.2,0.6,0c0.1-0.1,0.1-0.2,0.1-0.3V22.2c0-0.4,0.4-0.8,0.8-0.8l26.3,0c0.4,0,0.8,0.4,0.8,0.8l0,0l0,159
			c0,0.2-0.2,0.4-0.4,0.4c-0.1,0-0.2,0-0.3-0.1L936.5,118.2z"/>
		<path d="M285,64.8l-4.6,3.7l-13.1-22.1c-0.3-0.5-0.7-0.6-1.2-0.3c-17.3,12.7-36.8,18.1-58.4,16.2c-0.6,0-0.9,0.2-0.9,0.8
			c-0.9,11.2-0.6,21.4,0.8,30.6c0.8,4.9,2.1,11.2,3.9,19l-5.3,2.2c-4.4-13.4-5.9-27.2-4.5-41.4c0.4-3.7,0.8-7.4,1.2-11.1
			c0.1-0.5-0.2-0.8-0.7-0.9l-10-1.7c-2.2-0.4-2.2-0.7,0-1c3.4-0.5,6.9-0.6,10.6-0.4c0.9,0,1.7-0.6,1.9-1.5c0.9-4.4,2.3-8.6,4.2-12.4
			c0.6-1.2,0.8-1.1,0.6,0.2c-0.7,4.4-1.4,8.6-2.2,12.7c-0.1,0.5,0.2,1,0.7,1.1c0.1,0,0.1,0,0.2,0c20.8-1.1,39.2-6.5,55.1-16.4
			c0.3-0.2,0.4-0.6,0.2-0.9c0,0,0,0,0-0.1c-5.3-6.7-10.9-12.8-17-18.5c-0.1-0.1-0.1-0.2,0-0.4l0.3-0.3c0.2-0.2,0.5-0.3,0.7-0.1
			c7.1,4.6,13.5,10.2,19,16.6c0.7,0.8,1.9,0.9,2.7,0.2l11.6-9.2c1.9-1.5,2.2-1.3,0.8,0.7c-2.8,4.2-6.4,8-10.8,11.5
			c-0.4,0.3-0.5,0.7-0.1,1.1C276.8,50.3,281.5,57.6,285,64.8z"/>
		<path d="M786.6,22.1c11.6,3.7,22.3,9.8,31.2,18c17.5,16.2,27,39,25.9,62.6c-0.6,13-4.5,25.7-11.2,37c-8.6,14.4-21.5,25.8-37,32.7
			c-0.3-0.3-0.5-0.5-0.6-0.7c-0.1-0.2-0.1-0.4,0.1-0.5l0.5-0.3c0.1-0.1,0.2-0.2,0.2-0.4c-0.3-1.1-0.2-2.2,0.3-3.1
			c0.3-0.5,0.4-1,0.5-1.5l1.6-21.1c0-0.3,0-0.6-0.2-0.8c-0.2-0.3-0.1-0.6,0.1-0.8c0.4-0.3,0.5-0.7,0.5-1.3l-0.1-2.2
			c27.3-27.3,21.8-70.9-12.5-90.1L786.6,22.1z"/>
		<path d="M177.2,118.6c-7.6-2.2-12.2-7.1-13.9-14.7c-1.2-5.3-2.1-9-2.9-11.1c2.4-19.4,10.6-35.7,24.6-48.8
			c15.1-14.2,33.7-20.8,55.6-19.9c0.3,0,0.4,0.2,0.5,0.4c0.1,0.3,0,0.5-0.4,0.6c-26.3,3.7-49.3,19.9-60,44.4
			C174.2,84.6,173,100.9,177.2,118.6z"/>
		<path d="M424.2,23.9c15.7,6.2,25.8,16.4,30.5,30.5c7.8,23.9-1.9,48.8-24.8,60c-0.3,0.1-0.4,0.5-0.2,0.7c0,0,0,0,0,0l36.7,60.1
			c0.4,0.6,0.2,0.9-0.5,0.9h-29.9c-0.6,0-1.1-0.3-1.4-0.8L403,122.9c1-1.5,1.5-2.8,1.5-3.8c0-0.4,0.1-0.8,0.3-1.1c0.5-1,0.8-2,0.7-3
			c-0.2-4,0.5-7.9,0.6-11.8c-0.5-0.6-0.5-1.2,0.1-2c0.9-1.2,0.8-3-0.1-5.2c22.2-2.2,30.5-26.3,16.4-42.6c1.4-7.2,1.3-13.8-0.3-20
			c-0.1-0.5-0.1-1,0.1-1.5l1.2-3.5c0.2-0.5,0.1-1-0.1-1.5c-0.2-0.4-0.5-0.8-0.7-1.2c-0.4-0.5-0.2-0.9,0.4-1.2L424.2,23.9z"/>
		<path d="M305,43.7c-2.1-0.6-4-1.5-5.7-2.7c-2.8-1.9-2.5-2.7,0.9-2.3l8.8,1c0.6,0.1,1.1-0.1,1.5-0.5l4.8-4.5c0.4-0.4,1.1-0.4,1.5,0
			c0.2,0.2,0.3,0.4,0.3,0.6c0.4,2.7-2,4.6-3.7,6.3c-0.6,0.6-0.9,1.4-0.7,2.3l1.4,9c0.1,0.7-0.1,1.2-0.8,1.5c-0.4,0.2-0.7,0.2-1,0
			c-0.2-0.1-0.3-0.3-0.4-0.5c-0.8-2-1.7-4.1-2.9-6.2c-0.2-0.4-0.8-0.6-1.2-0.3c-0.1,0-0.1,0.1-0.2,0.2l-4.9,4.9
			c-0.4,0.4-0.6,0.9-0.6,1.5c0,1,0,2,0,3c0,0.4-0.2,0.7-0.6,0.9c-0.5,0.2-0.8,0.1-1.1-0.4c-0.9-2-2.3-3.4-4.3-4.4
			c-1.8-0.9-1.7-1.5,0.2-1.8c3.2-0.6,6.2-2.8,8.8-6.5c0.2-0.3,0.1-0.7-0.2-0.9C305.1,43.7,305,43.7,305,43.7z"/>
		<path d="M286.2,67.4l-4.2,4.6c-8.4,9-18.3,20.8-29.5,35.5c-9.4,12.3-16.7,24.4-22,36.3c-0.3,0.6-0.4,1.5-0.5,2.6
			c-0.5,0.5-0.8,1.1-0.7,1.7c-3.1,6.8-3.7,12.9-1.9,18.5c1.9,5.6,5.4,9.3,10.6,10.9c4.1,1.3,10.1,2.7,17.9,4.1
			c-53.6,9.8-101.9-34.1-95.7-88.8c0.8,2.1,1.8,5.8,2.9,11.1c1.7,7.6,6.3,12.5,13.9,14.7c3.1,1.1,6.5,1.6,10.2,1.3
			c6-0.5,12.2-2.1,18.8-4.9l5.3-2.2c4-1.5,7.9-3.3,11.7-5.4c20.3-11.2,39.3-24.2,57.2-38.9l4.6-3.7c3.4-3.1,6.8-5.8,10.2-8.3
			c0.1-0.1,0.3,0,0.5,0.1c0.2,0.2,0.3,0.4,0,0.7L286.2,67.4z"/>
		<path d="M286.2,67.4c8.3,17.5,11.5,35.7,9.5,54.6c-0.2,1.6,0.4,1.9,1.6,0.8c2.1-1.8,4.1-3.7,6.3-5.6c3.7-3.3,4.1-2.9,1.3,1.1
			c-2.5,3.6-5.6,7.2-9.3,11c-1.6,1.7-3.5,3.2-5.6,4.5c-2.2,1.4-4.4,2.7-6.6,4c-15.8,9.4-33.1,13.2-52,11.3c-0.5,0-0.9-0.2-1.3-0.6
			c-0.2-0.2-0.5-0.4-0.7-0.5c-0.1-0.6,0.2-1.2,0.7-1.7c1.2-0.5,2.5-1.1,3.8-1.1c21.4-1.1,40.4-7,56.9-17.9c1.2-0.8,1.8-1.9,1.8-3.2
			c-0.1-18-3.7-35.4-10.6-52.2L286.2,67.4z"/>
		<path d="M256,181.7c-7.8-1.4-13.8-2.8-17.9-4.1c-5.2-1.6-8.7-5.3-10.6-10.9c19.6,4,37.1,1.5,52.6-7.5c20.9-12.2,33.5-31.2,37.8-57
			c0-0.1,0.1-0.2,0.1-0.3c0.1-0.1,0.2-0.1,0.4,0c0.1,0.1,0.1,0.1,0.1,0.3c0.8,11-0.2,20.3-2.9,27.9
			C305.6,158.2,285.7,175.4,256,181.7z"/>
		<path d="M798.2,139.6l0.1,2.2c0,0.5-0.1,0.9-0.5,1.3c-0.2,0.2-0.3,0.5-0.1,0.8c0.1,0.3,0.2,0.5,0.2,0.8l-1.6,21.1
			c0,0.6-0.2,1.1-0.5,1.5c-0.5,1-0.6,2-0.3,3.1c0,0.2,0,0.3-0.2,0.4l-0.5,0.3c-0.2,0.1-0.3,0.3-0.1,0.5c0.1,0.2,0.3,0.4,0.6,0.7
			c-16,7.1-34,9-51.2,5.4c0-0.3-0.2-0.5-0.4-0.8c-0.4-0.3-0.3-0.5,0.1-0.6c0.1,0,0.1,0,0.1-0.1c0.1-0.1,0.2-0.2,0.2-0.4
			c0-1.5-0.4-4-1.1-7.5c-0.9-4.8-0.7-10.6,0.5-17.3C764.6,157,782.8,153.1,798.2,139.6z"/>
		<path d="M247.8,190.2l-6.3,11.1c-0.2,0.3-0.6,0.4-0.9,0.2c-0.1-0.1-0.2-0.1-0.2-0.2l-6.3-11.1c-0.2-0.3-0.1-0.7,0.3-0.9
			c0.1-0.1,0.2-0.1,0.3-0.1l12.6,0c0.4,0,0.7,0.3,0.7,0.7C247.9,190,247.8,190.1,247.8,190.2z"/>
		<path d="M296.8,234.8l-11.3,0c-0.8,0-1.3,0.4-1.7,1.1l-1.4,3.1c-0.2,0.3-0.4,0.6-0.7,0.8c-1.4,1-2.8,1.4-4.2,1.2
			c-1.4-0.2-1.8-0.9-1.2-2.2l14-30.4c0.1-0.3,0.5-0.4,0.8-0.3c0.1,0.1,0.2,0.2,0.3,0.3l14.7,31.6c0.2,0.4,0,0.8-0.4,1
			c-0.1,0-0.1,0.1-0.2,0.1c-4.2,0.5-6.6-1.2-7.3-5C298.1,235.3,297.5,234.8,296.8,234.8z M287.2,228.5c-0.2,0.5,0,1,0.5,1.2
			c0.1,0,0.2,0.1,0.4,0.1l5.8,0c0.5,0,0.9-0.4,0.9-0.9c0-0.1,0-0.2-0.1-0.4l-3-6.9c-0.2-0.5-0.7-0.7-1.2-0.5
			c-0.2,0.1-0.4,0.3-0.5,0.5L287.2,228.5z"/>
		<path d="M531.1,235.8c-0.6,4.1-3.1,5.7-7.4,4.9c-0.5-0.1-0.7-0.5-0.7-1c0-0.1,0-0.1,0.1-0.2l14.3-30.3c0.6-1.2,1.1-1.2,1.7,0
			l13.8,29.5c0.6,1.2,0.2,1.8-1.1,2l-2.7,0.4c-1.2,0.2-2.4-0.7-2.5-1.9c0-0.1,0-0.1,0-0.2c-0.2-3.1-1.7-4.5-4.5-4.3
			c-3,0.2-6.1,0.1-9.2-0.2C531.8,234.3,531.3,234.8,531.1,235.8z M534.2,228.7c-0.2,0.4,0,0.8,0.4,0.9c0.1,0,0.2,0.1,0.3,0.1
			l6.6,0.1c0.4,0,0.7-0.3,0.7-0.7c0-0.1,0-0.2-0.1-0.3l-3.2-7.7c-0.2-0.4-0.6-0.5-0.9-0.4c-0.2,0.1-0.3,0.2-0.4,0.4L534.2,228.7z"/>
		<path d="M817.8,221.9l5.9-10.8c0.7-1.3,1.8-2,3.3-2.1l1.9-0.1c1.6-0.1,2,0.6,1.3,2c-2.8,5.3-5.7,10.2-8.8,14.9
			c-2.5,3.8-1.4,9.2-1.8,13.6c-0.1,0.8-0.7,1.3-1.5,1.3l-2.2-0.1c-0.8,0-1.5-0.7-1.5-1.6c0,0,0-0.1,0-0.1c0.5-5.5-0.1-9.7-1.7-12.6
			c-2.8-5-5.9-10.4-9.2-16.2c-0.9-1.6-0.5-2.1,1.3-1.7l2.3,0.6c1.6,0.4,2.9,1.4,3.7,2.8l5.8,9.9c0.2,0.3,0.6,0.5,0.9,0.3
			C817.6,222.1,817.7,222,817.8,221.9z"/>
		<path d="M351.7,209.4l5.1-0.4c0.4,0,0.8,0.3,0.9,0.8c0,0.1,0,0.3-0.1,0.4l-14.2,30.5c-0.2,0.4-0.7,0.6-1.1,0.4
			c-0.2-0.1-0.3-0.2-0.4-0.4l-13.9-30.4c-0.2-0.4,0-0.9,0.4-1.1c0.1,0,0.2-0.1,0.3-0.1l4.7,0.1c0.3,0,0.6,0.2,0.7,0.5l7.9,17.9
			c0.2,0.4,0.7,0.6,1.1,0.4c0.2-0.1,0.3-0.2,0.4-0.4l7.5-17.7C351.2,209.6,351.4,209.4,351.7,209.4z"/>
		<path d="M446.1,234.9c3.3-0.3,6.6-0.2,10,0.1c0.6,0.1,1,0.4,1.2,1c0.3,1.2,0.3,2.4-0.2,3.5c-0.2,0.5-0.6,0.8-1.1,0.9
			c-1.7,0.3-3.4,0.4-5,0.4c-3.7-0.1-7.5-0.1-11.3,0.2c-0.6,0.1-1.2-0.4-1.2-1c0,0,0-0.1,0-0.1l0.2-28.7c0-1.3,0.7-2.1,2-2.3l1.5-0.2
			c1.2-0.2,2.2,0.6,2.4,1.8c0,0.1,0,0.2,0,0.3l0,22.8C444.6,234.3,445.2,234.9,446.1,234.9C446,234.9,446,234.9,446.1,234.9z"/>
		<path d="M602.2,227.5l-5.2,0.6c-1.2,0.1-2.3-0.7-2.4-1.9c0-0.1,0-0.1,0-0.2l0-0.9c0-1.9,0.9-2.9,2.9-2.9l10.4,0.2
			c0.7,0,1.1,0.4,1.2,1.1c0.5,4.2,1.6,11.7-2.5,14.5c-7,4.7-16.4,4.4-22.4-1.7c-5.8-5.8-5.9-16.9,0.3-22.8c5.5-5.2,12.4-6,20.8-2.6
			c0.1,0,0.2,0.1,0.2,0.3c0.3,2.1,0.4,4.2,0.4,6.1c0,0,0,0.1-0.1,0.1c0,0,0,0-0.1,0c-3.1-2-6.2-3-9.4-2.9
			c-7.5,0.1-11.9,6.3-10.1,13.7c1.7,7,9.5,9,15.5,6.4c2.4-1,2.5-3.7,2-5.9C603.4,227.7,603,227.4,602.2,227.5z"/>
		<path d="M712.1,227.3c0.3-0.4,0.4-0.8,0.3-1.3c-0.3-4.3-0.4-9.2-0.1-14.9c0.1-1.4,0.8-2.2,2.2-2.3l1.5-0.1c1.4-0.1,2.2,0.5,2.2,2
			l-0.1,30.1c0,0.3-0.2,0.5-0.5,0.5c-0.1,0-0.2-0.1-0.3-0.1l-18.1-17.4c-1.2-1.2-1.8-0.9-1.8,0.8l0.1,14.4c0,1.7-0.8,2.6-2.6,2.6
			l-1.5,0c-1.3,0-2-0.6-2-2l-0.2-29.9c0-1.3,0.5-1.5,1.4-0.6l18.5,18.4C711.4,227.7,711.8,227.7,712.1,227.3
			C712.1,227.4,712.1,227.3,712.1,227.3z"/>
		<path d="M755,222c-1.2,3.3-0.6,6.4,1.6,9.2c5,6.2,11.6,4.9,17.7,1.1c0.9-0.5,1.3-0.3,1.1,0.7l-0.5,4c-0.1,0.9-0.7,1.7-1.6,2.1
			c-11.8,5.3-24-0.8-24.5-14.4c-0.5-13.8,14.1-19.2,24.9-13.9c0.7,0.4,1.2,1.1,1.3,1.9l0.2,4c0.1,1.1-0.4,1.3-1.2,0.6
			c-2.3-1.8-5-2.8-8.1-3C760.4,214.2,756.8,216.7,755,222z"/>
		<path d="M187.8,216l-0.5,24.1c0,0.6-0.5,1.2-1.1,1.2l-3.3,0.3c-0.7,0.1-1.3-0.5-1.3-1.1c0,0,0-0.1,0-0.1l-0.1-24.2
			c0-0.7-0.5-1.2-1.2-1.2l-6.2-0.4c-0.6,0-1.1-0.5-1.2-1.1l-0.3-2.7c-0.1-0.7,0.4-1.3,1.1-1.4c0,0,0.1,0,0.1,0l21.1-0.2
			c0.7,0,1.2,0.5,1.3,1.2c0,0.1,0,0.2,0,0.2l-0.6,2.9c-0.1,0.6-0.6,1-1.2,1l-5.5,0.2C188.4,214.8,187.8,215.3,187.8,216z"/>
		<path d="M231.3,230.3l-0.1,8.9c0,1-0.5,1.6-1.5,1.7l-2.2,0.2c-1.4,0.1-2.1-0.5-2.1-1.9l0.1-28.9c0-0.6,0.5-1.1,1.1-1.1
			c0,0,0,0,0,0c5.3,0.1,13.2-1,17.4,2.4c5.8,4.7,4.8,11.5-0.5,16.2c-0.5,0.5-0.7,1.3-0.3,1.9l5.3,8.7c1.1,1.9,0.6,2.7-1.6,2.5
			l-1.6-0.2c-1.9-0.2-3.2-1.1-4.1-2.8c-1.8-3.5-4.1-9.1-8.9-8.5C231.5,229.4,231.3,229.7,231.3,230.3z M231.2,215.6l0,7.8
			c0,0.5,0.4,0.8,0.8,0.8l4.9,0c2.6,0,4.7-1.9,4.7-4.2c0,0,0,0,0,0v-1c0-2.3-2.1-4.2-4.7-4.3l-4.9,0
			C231.6,214.8,231.2,215.1,231.2,215.6z"/>
		<path d="M393.3,215.7l-0.2,4.5c0,0.7,0.5,1.3,1.2,1.3c0,0,0,0,0,0l11.1,0.2c0.7,0,1.2,0.6,1.2,1.3c0,0,0,0,0,0l-0.1,2.8
			c0,0.7-0.5,1.2-1.2,1.2l-11.1,0.2c-0.7,0-1.2,0.5-1.2,1.2l-0.2,5.4c0,0.7,0.5,1.3,1.2,1.3c0,0,0,0,0,0l12.4,0.2
			c0.6,0,1.1,0.5,1.2,1.1l0.3,2.7c0.1,0.7-0.4,1.3-1.1,1.4c0,0-0.1,0-0.1,0l-17.9,0.8c-0.7,0-1.3-0.5-1.3-1.2c0,0,0,0,0,0l-0.1-29.6
			c0-0.7,0.6-1.2,1.2-1.2c0,0,0,0,0,0l17.6,0.2c0.6,0,1.2,0.5,1.2,1.1l0.2,2.9c0.1,0.7-0.5,1.3-1.1,1.3c0,0-0.1,0-0.1,0l-12,0
			C393.9,214.6,393.4,215.1,393.3,215.7z"/>
		<path d="M646.3,227.1c-0.5,0-0.8,0.3-0.8,0.8l-0.1,6.3c0,0.6,0.3,0.9,0.9,0.9l12.8,0c1,0,1.5,0.5,1.4,1.5l-0.2,2
			c-0.1,0.9-0.6,1.4-1.5,1.6c-1.4,0.2-2.7,0.3-4,0.3c-4.3-0.2-8.8,0-13.6,0.7c-0.6,0.1-1.1-0.3-1.2-0.9c0,0,0-0.1,0-0.1l0-30.2
			c0-0.4,0.3-0.7,0.7-0.7c0,0,0,0,0,0l17.3,0c1.4,0,2.1,0.7,2.1,2.1l0,1.2c0,1.1-0.5,1.7-1.7,1.8l-11.7,0.5c-0.7,0-1.1,0.4-1.1,1.1
			l-0.2,4.6c0,0.7,0.3,1.1,1.1,1.1L658,222c0.9,0,1.7,0.7,1.8,1.6l0.1,0.6c0.2,1.7-0.5,2.6-2.3,2.6L646.3,227.1z"/>
	</g>
	<g>
		<g>
			<path class="st1" d="M232,11.2l6.3-10.9c0.2-0.3,0.6-0.4,0.9-0.2c0.1,0.1,0.2,0.1,0.2,0.2l6.3,10.9c0.2,0.3,0.1,0.7-0.2,0.9
				c-0.1,0.1-0.2,0.1-0.3,0.1l-12.6,0c-0.4,0-0.7-0.3-0.7-0.6C231.9,11.4,232,11.3,232,11.2z"/>
			<path class="st2" d="M940.5,85.6c-1.4,0.6-2.4,1.2-3,1.7c-0.4,0.4-0.6,0.8-0.6,1.4l0,26.4c0,0.5-0.2,0.8-0.7,0.9l-1.5,0.3
				l-38.9-37.9c-0.2-0.2-0.5-0.2-0.7,0c-0.1,0.1-0.1,0.2-0.1,0.4l0,94.5c0,0.4-0.4,0.8-0.8,0.8l-26.3,0c-0.5,0-0.8-0.3-0.8-0.8
				l0-159.6c0-0.1,0.1-0.2,0.2-0.2c0,0,0.1,0,0.1,0L940.5,85.6z"/>
			<path class="st2" d="M756.1,16.3l-1.1,25.8c-6.6,0.8-11.3,1.7-14.1,2.8c-22.9,9.2-36.3,29-35.5,53.5c0.2,8.4,1.6,15.4,4,21.1
				c6.2,14.5,17,24.3,32.4,29.7c-1.3,6.8-1.5,12.6-0.5,17.3c0.7,3.5,1,6,1.1,7.5c0,0.2,0,0.3-0.2,0.4c0,0-0.1,0.1-0.1,0.1
				c-0.4,0.1-0.5,0.3-0.1,0.6c0.3,0.2,0.4,0.5,0.4,0.8c-17.3-3.6-32.9-12.6-44.6-25.6c-17.9-20-24.6-47.3-18-73.1
				c3.3-12.9,9.8-24.7,18.9-34.5C713.4,26.7,734.1,17.2,756.1,16.3z"/>
			<path class="st2" d="M756.1,16.3c9.7-0.4,19.3,0.9,28.5,3.8l-0.8,27.4c-8.8-4.3-18.4-6.1-28.9-5.4L756.1,16.3z"/>
			<path class="st2" d="M60.3,79.7l-1.6,0.7c-0.4,0.2-0.5,0.4-0.1,0.7c0.8,0.7,1.1,1.7,1.1,2.8c-0.2,5.4-0.4,10.6-0.5,15.7
				c0,0.3,0.1,0.6,0.2,0.9c0.3,0.6,0.3,1.1,0.2,1.8c-0.1,0.5-0.4,0.9-0.8,1.2c-0.6,0.4-1.2,1-1.6,1.6l-28.4,0.1
				c-0.5,0-0.8,0.3-0.8,0.8l0.1,67.2c0,0.5-0.4,1-1,1l-26-0.1c-0.7,0-1-0.3-1-1L0,20.1c0-0.5,0.4-0.8,0.8-0.8l26.3,0.1
				c0.5,0,0.8,0.4,0.8,0.8l0,0l0,59c0,0.3,0.2,0.5,0.5,0.5L60.3,79.7z"/>
			<path class="st2" d="M57.1,105.1c0.5-0.7,1-1.2,1.6-1.6c0.4-0.3,0.7-0.7,0.8-1.2c0.1-0.6,0.1-1.2-0.2-1.8
				c-0.1-0.3-0.2-0.6-0.2-0.9c0.1-5.1,0.3-10.3,0.5-15.7c0.1-1.2-0.3-2.1-1.1-2.8c-0.4-0.3-0.3-0.6,0.1-0.7l1.6-0.7l40.5,0
				c0.6,0,1.2-0.5,1.2-1.2l0,0l0.1-58.3c0-0.5,0.2-0.7,0.7-0.7l26.3,0c0.3,0,0.4,0.1,0.4,0.4l0,153.5c0,0.5-0.4,0.8-0.8,0.8h0
				l-25.5,0c-0.7,0-1.2-0.5-1.2-1.2V106c0-0.5-0.4-0.9-0.9-0.9L57.1,105.1z"/>
			<path class="st2" d="M422.2,21.9l-1.2,0.6c-0.6,0.3-0.7,0.6-0.4,1.2c0.3,0.4,0.5,0.8,0.7,1.2c0.3,0.5,0.3,1,0.1,1.5l-1.2,3.5
				c-0.2,0.5-0.2,1-0.1,1.5c1.6,6.2,1.7,12.9,0.3,20c-4.3-4.3-10-6.5-17.4-6.7c-10-0.1-20-0.2-29.9-0.1c-0.3,0-0.4,0.1-0.4,0.4v48.1
				c0,0.6,0.3,0.9,0.9,0.9l30.4-0.1c1,2.2,1,4,0.1,5.2c-0.6,0.8-0.6,1.5-0.1,2c-0.1,4-0.8,7.9-0.6,11.8c0.1,1-0.2,2-0.7,3
				c-0.2,0.4-0.3,0.7-0.3,1.1c-0.1,1-0.6,2.3-1.5,3.8c-0.2-0.4-0.6-0.9-1.1-1.3c-0.4-0.4-0.9-0.5-1.5-0.5l-25.2,0
				c-0.3,0-0.4,0.1-0.4,0.4l0.1,53.8c0,0.4-0.4,0.8-0.8,0.8l-26.3,0c-0.7,0-1.2-0.5-1.2-1.2l0-153c0-0.3,0.2-0.5,0.5-0.5
				c21.4,0,42.7,0,64.2,0C412.7,19.4,417.1,20.2,422.2,21.9z"/>
			<path class="st2" d="M486.9,19.4h27.4c0.3,0,0.5,0.2,0.5,0.5v153.7c0,0.3-0.2,0.5-0.5,0.5h-27.4c-0.3,0-0.5-0.2-0.5-0.5V19.8
				C486.4,19.6,486.6,19.4,486.9,19.4z"/>
			<path class="st2" d="M667.8,149.1l0,24.4c0,0.3-0.2,0.5-0.5,0.5c0,0,0,0,0,0l-130,0c-0.3,0-0.5-0.2-0.5-0.5c0-0.1,0-0.2,0.1-0.3
				l86.4-128c0.2-0.2,0.1-0.6-0.1-0.7c-0.1-0.1-0.2-0.1-0.3-0.1l-69.7,0.1c-0.3,0-0.5-0.2-0.5-0.5l0,0l0-24.1c0-0.3,0.2-0.5,0.5-0.5
				l0,0l117.4,0c0.3,0,0.5,0.2,0.5,0.5c0,0.1,0,0.2-0.1,0.3l-85.8,127.5c-0.2,0.2-0.1,0.6,0.2,0.7c0.1,0.1,0.2,0.1,0.3,0.1l81.7,0
				C667.6,148.6,667.8,148.8,667.8,149.1z"/>
			<path class="st2" d="M934.5,116.2l1.5-0.3c0.5-0.1,0.7-0.4,0.7-0.9l0-26.4c0-0.5,0.2-1,0.6-1.4c0.6-0.6,1.6-1.2,3-1.7l30.9,30.2
				c0.2,0.2,0.4,0.2,0.6,0c0.1-0.1,0.1-0.2,0.1-0.3V20.2c0-0.4,0.4-0.8,0.8-0.8l26.3,0c0.4,0,0.8,0.4,0.8,0.8l0,0l0,159
				c0,0.2-0.2,0.4-0.4,0.4c-0.1,0-0.2,0-0.3-0.1L934.5,116.2z"/>
			<path class="st3" d="M283,62.8l-4.6,3.7l-13.1-22.1c-0.3-0.5-0.7-0.6-1.2-0.3c-17.3,12.7-36.8,18.1-58.4,16.2
				c-0.6,0-0.9,0.2-0.9,0.8c-0.9,11.2-0.6,21.4,0.8,30.6c0.8,4.9,2.1,11.2,3.9,19l-5.3,2.2c-4.4-13.4-5.9-27.2-4.5-41.4
				c0.4-3.7,0.8-7.4,1.2-11.1c0.1-0.5-0.2-0.8-0.7-0.9l-10-1.7c-2.2-0.4-2.2-0.7,0-1c3.4-0.5,6.9-0.6,10.6-0.4
				c0.9,0,1.7-0.6,1.9-1.5c0.9-4.4,2.3-8.6,4.2-12.4c0.6-1.2,0.8-1.1,0.6,0.2c-0.7,4.4-1.4,8.6-2.2,12.7c-0.1,0.5,0.2,1,0.7,1.1
				c0.1,0,0.1,0,0.2,0c20.8-1.1,39.2-6.5,55.1-16.4c0.3-0.2,0.4-0.6,0.2-0.9c0,0,0,0,0-0.1c-5.3-6.7-10.9-12.8-17-18.5
				c-0.1-0.1-0.1-0.2,0-0.4l0.3-0.3c0.2-0.2,0.5-0.3,0.7-0.1c7.1,4.6,13.5,10.2,19,16.6c0.7,0.8,1.9,0.9,2.7,0.2l11.6-9.2
				c1.9-1.5,2.2-1.3,0.8,0.7c-2.8,4.2-6.4,8-10.8,11.5c-0.4,0.3-0.5,0.7-0.1,1.1C274.8,48.3,279.5,55.6,283,62.8z"/>
			<path class="st2" d="M784.6,20.1c11.6,3.7,22.3,9.8,31.2,18c17.5,16.2,27,39,25.9,62.6c-0.6,13-4.5,25.7-11.2,37
				c-8.6,14.4-21.5,25.8-37,32.7c-0.3-0.3-0.5-0.5-0.6-0.7c-0.1-0.2-0.1-0.4,0.1-0.5l0.5-0.3c0.1-0.1,0.2-0.2,0.2-0.4
				c-0.3-1.1-0.2-2.2,0.3-3.1c0.3-0.5,0.4-1,0.5-1.5l1.6-21.1c0-0.3,0-0.6-0.2-0.8c-0.2-0.3-0.1-0.6,0.1-0.8
				c0.4-0.3,0.5-0.7,0.5-1.3l-0.1-2.2c27.3-27.3,21.8-70.9-12.5-90.1L784.6,20.1z"/>
			<path class="st3" d="M175.2,116.6c-7.6-2.2-12.2-7.1-13.9-14.7c-1.2-5.3-2.1-9-2.9-11.1c2.4-19.4,10.6-35.7,24.6-48.8
				c15.1-14.2,33.7-20.8,55.6-19.9c0.3,0,0.4,0.2,0.5,0.4c0.1,0.3,0,0.5-0.4,0.6c-26.3,3.7-49.3,19.9-60,44.4
				C172.2,82.6,171,98.9,175.2,116.6z"/>
			<path class="st2" d="M422.2,21.9c15.7,6.2,25.8,16.4,30.5,30.5c7.8,23.9-1.9,48.8-24.8,60c-0.3,0.1-0.4,0.5-0.2,0.7c0,0,0,0,0,0
				l36.7,60.1c0.4,0.6,0.2,0.9-0.5,0.9h-29.9c-0.6,0-1.1-0.3-1.4-0.8L401,120.9c1-1.5,1.5-2.8,1.5-3.8c0-0.4,0.1-0.8,0.3-1.1
				c0.5-1,0.8-2,0.7-3c-0.2-4,0.5-7.9,0.6-11.8c-0.5-0.6-0.5-1.2,0.1-2c0.9-1.2,0.8-3-0.1-5.2c22.2-2.2,30.5-26.3,16.4-42.6
				c1.4-7.2,1.3-13.8-0.3-20c-0.1-0.5-0.1-1,0.1-1.5l1.2-3.5c0.2-0.5,0.1-1-0.1-1.5c-0.2-0.4-0.5-0.8-0.7-1.2
				c-0.4-0.5-0.2-0.9,0.4-1.2L422.2,21.9z"/>
			<path class="st4" d="M303,41.7c-2.1-0.6-4-1.5-5.7-2.7c-2.8-1.9-2.5-2.7,0.9-2.3l8.8,1c0.6,0.1,1.1-0.1,1.5-0.5l4.8-4.5
				c0.4-0.4,1.1-0.4,1.5,0c0.2,0.2,0.3,0.4,0.3,0.6c0.4,2.7-2,4.6-3.7,6.3c-0.6,0.6-0.9,1.4-0.7,2.3l1.4,9c0.1,0.7-0.1,1.2-0.8,1.5
				c-0.4,0.2-0.7,0.2-1,0c-0.2-0.1-0.3-0.3-0.4-0.5c-0.8-2-1.7-4.1-2.9-6.2c-0.2-0.4-0.8-0.6-1.2-0.3c-0.1,0-0.1,0.1-0.2,0.2
				l-4.9,4.9c-0.4,0.4-0.6,0.9-0.6,1.5c0,1,0,2,0,3c0,0.4-0.2,0.7-0.6,0.9c-0.5,0.2-0.8,0.1-1.1-0.4c-0.9-2-2.3-3.4-4.3-4.4
				c-1.8-0.9-1.7-1.5,0.2-1.8c3.2-0.6,6.2-2.8,8.8-6.5c0.2-0.3,0.1-0.7-0.2-0.9C303.1,41.7,303,41.7,303,41.7z"/>
			<path class="st2" d="M284.2,65.4l-4.2,4.6c-8.4,9-18.3,20.8-29.5,35.5c-9.4,12.3-16.7,24.4-22,36.3c-0.3,0.6-0.4,1.5-0.5,2.6
				c-0.5,0.5-0.8,1.1-0.7,1.7c-3.1,6.8-3.7,12.9-1.9,18.5c1.9,5.6,5.4,9.3,10.6,10.9c4.1,1.3,10.1,2.7,17.9,4.1
				c-53.6,9.8-101.9-34.1-95.7-88.8c0.8,2.1,1.8,5.8,2.9,11.1c1.7,7.6,6.3,12.5,13.9,14.7c3.1,1.1,6.5,1.6,10.2,1.3
				c6-0.5,12.2-2.1,18.8-4.9l5.3-2.2c4-1.5,7.9-3.3,11.7-5.4c20.3-11.2,39.3-24.2,57.2-38.9l4.6-3.7c3.4-3.1,6.8-5.8,10.2-8.3
				c0.1-0.1,0.3,0,0.5,0.1c0.2,0.2,0.3,0.4,0,0.7L284.2,65.4z"/>
			<path class="st3" d="M284.2,65.4c8.3,17.5,11.5,35.7,9.5,54.6c-0.2,1.6,0.4,1.9,1.6,0.8c2.1-1.8,4.1-3.7,6.3-5.6
				c3.7-3.3,4.1-2.9,1.3,1.1c-2.5,3.6-5.6,7.2-9.3,11c-1.6,1.7-3.5,3.2-5.6,4.5c-2.2,1.4-4.4,2.7-6.6,4c-15.8,9.4-33.1,13.2-52,11.3
				c-0.5,0-0.9-0.2-1.3-0.6c-0.2-0.2-0.5-0.4-0.7-0.5c-0.1-0.6,0.2-1.2,0.7-1.7c1.2-0.5,2.5-1.1,3.8-1.1c21.4-1.1,40.4-7,56.9-17.9
				c1.2-0.8,1.8-1.9,1.8-3.2c-0.1-18-3.7-35.4-10.6-52.2L284.2,65.4z"/>
			<path class="st3" d="M254,179.7c-7.8-1.4-13.8-2.8-17.9-4.1c-5.2-1.6-8.7-5.3-10.6-10.9c19.6,4,37.1,1.5,52.6-7.5
				c20.9-12.2,33.5-31.2,37.8-57c0-0.1,0.1-0.2,0.1-0.3c0.1-0.1,0.2-0.1,0.4,0c0.1,0.1,0.1,0.1,0.1,0.3c0.8,11-0.2,20.3-2.9,27.9
				C303.6,156.2,283.7,173.4,254,179.7z"/>
			<path class="st2" d="M796.2,137.6l0.1,2.2c0,0.5-0.1,0.9-0.5,1.3c-0.2,0.2-0.3,0.5-0.1,0.8c0.1,0.3,0.2,0.5,0.2,0.8l-1.6,21.1
				c0,0.6-0.2,1.1-0.5,1.5c-0.5,1-0.6,2-0.3,3.1c0,0.2,0,0.3-0.2,0.4l-0.5,0.3c-0.2,0.1-0.3,0.3-0.1,0.5c0.1,0.2,0.3,0.4,0.6,0.7
				c-16,7.1-34,9-51.2,5.4c0-0.3-0.2-0.5-0.4-0.8c-0.4-0.3-0.3-0.5,0.1-0.6c0.1,0,0.1,0,0.1-0.1c0.1-0.1,0.2-0.2,0.2-0.4
				c0-1.5-0.4-4-1.1-7.5c-0.9-4.8-0.7-10.6,0.5-17.3C762.6,155,780.8,151.1,796.2,137.6z"/>
			<path class="st1" d="M245.8,188.2l-6.3,11.1c-0.2,0.3-0.6,0.4-0.9,0.2c-0.1-0.1-0.2-0.1-0.2-0.2l-6.3-11.1
				c-0.2-0.3-0.1-0.7,0.3-0.9c0.1-0.1,0.2-0.1,0.3-0.1l12.6,0c0.4,0,0.7,0.3,0.7,0.7C245.9,188,245.8,188.1,245.8,188.2z"/>
			<path class="st3" d="M294.8,232.8l-11.3,0c-0.8,0-1.3,0.4-1.7,1.1l-1.4,3.1c-0.2,0.3-0.4,0.6-0.7,0.8c-1.4,1-2.8,1.4-4.2,1.2
				c-1.4-0.2-1.8-0.9-1.2-2.2l14-30.4c0.1-0.3,0.5-0.4,0.8-0.3c0.1,0.1,0.2,0.2,0.3,0.3l14.7,31.6c0.2,0.4,0,0.8-0.4,1
				c-0.1,0-0.1,0.1-0.2,0.1c-4.2,0.5-6.6-1.2-7.3-5C296.1,233.3,295.5,232.8,294.8,232.8z M285.2,226.5c-0.2,0.5,0,1,0.5,1.2
				c0.1,0,0.2,0.1,0.4,0.1l5.8,0c0.5,0,0.9-0.4,0.9-0.9c0-0.1,0-0.2-0.1-0.4l-3-6.9c-0.2-0.5-0.7-0.7-1.2-0.5
				c-0.2,0.1-0.4,0.3-0.5,0.5L285.2,226.5z"/>
			<path class="st3" d="M529.1,233.8c-0.6,4.1-3.1,5.7-7.4,4.9c-0.5-0.1-0.7-0.5-0.7-1c0-0.1,0-0.1,0.1-0.2l14.3-30.3
				c0.6-1.2,1.1-1.2,1.7,0l13.8,29.5c0.6,1.2,0.2,1.8-1.1,2l-2.7,0.4c-1.2,0.2-2.4-0.7-2.5-1.9c0-0.1,0-0.1,0-0.2
				c-0.2-3.1-1.7-4.5-4.5-4.3c-3,0.2-6.1,0.1-9.2-0.2C529.8,232.3,529.3,232.8,529.1,233.8z M532.2,226.7c-0.2,0.4,0,0.8,0.4,0.9
				c0.1,0,0.2,0.1,0.3,0.1l6.6,0.1c0.4,0,0.7-0.3,0.7-0.7c0-0.1,0-0.2-0.1-0.3l-3.2-7.7c-0.2-0.4-0.6-0.5-0.9-0.4
				c-0.2,0.1-0.3,0.2-0.4,0.4L532.2,226.7z"/>
			<path class="st3" d="M815.8,219.9l5.9-10.8c0.7-1.3,1.8-2,3.3-2.1l1.9-0.1c1.6-0.1,2,0.6,1.3,2c-2.8,5.3-5.7,10.2-8.8,14.9
				c-2.5,3.8-1.4,9.2-1.8,13.6c-0.1,0.8-0.7,1.3-1.5,1.3l-2.2-0.1c-0.8,0-1.5-0.7-1.5-1.6c0,0,0-0.1,0-0.1c0.5-5.5-0.1-9.7-1.7-12.6
				c-2.8-5-5.9-10.4-9.2-16.2c-0.9-1.6-0.5-2.1,1.3-1.7l2.3,0.6c1.6,0.4,2.9,1.4,3.7,2.8l5.8,9.9c0.2,0.3,0.6,0.5,0.9,0.3
				C815.6,220.1,815.7,220,815.8,219.9z"/>
			<path class="st3" d="M349.7,207.4l5.1-0.4c0.4,0,0.8,0.3,0.9,0.8c0,0.1,0,0.3-0.1,0.4l-14.2,30.5c-0.2,0.4-0.7,0.6-1.1,0.4
				c-0.2-0.1-0.3-0.2-0.4-0.4l-13.9-30.4c-0.2-0.4,0-0.9,0.4-1.1c0.1,0,0.2-0.1,0.3-0.1l4.7,0.1c0.3,0,0.6,0.2,0.7,0.5l7.9,17.9
				c0.2,0.4,0.7,0.6,1.1,0.4c0.2-0.1,0.3-0.2,0.4-0.4l7.5-17.7C349.2,207.6,349.4,207.4,349.7,207.4z"/>
			<path class="st3" d="M444.1,232.9c3.3-0.3,6.6-0.2,10,0.1c0.6,0.1,1,0.4,1.2,1c0.3,1.2,0.3,2.4-0.2,3.5c-0.2,0.5-0.6,0.8-1.1,0.9
				c-1.7,0.3-3.4,0.4-5,0.4c-3.7-0.1-7.5-0.1-11.3,0.2c-0.6,0.1-1.2-0.4-1.2-1c0,0,0-0.1,0-0.1l0.2-28.7c0-1.3,0.7-2.1,2-2.3
				l1.5-0.2c1.2-0.2,2.2,0.6,2.4,1.8c0,0.1,0,0.2,0,0.3l0,22.8C442.6,232.3,443.2,232.9,444.1,232.9
				C444,232.9,444,232.9,444.1,232.9z"/>
			<path class="st3" d="M600.2,225.5l-5.2,0.6c-1.2,0.1-2.3-0.7-2.4-1.9c0-0.1,0-0.1,0-0.2l0-0.9c0-1.9,0.9-2.9,2.9-2.9l10.4,0.2
				c0.7,0,1.1,0.4,1.2,1.1c0.5,4.2,1.6,11.7-2.5,14.5c-7,4.7-16.4,4.4-22.4-1.7c-5.8-5.8-5.9-16.9,0.3-22.8c5.5-5.2,12.4-6,20.8-2.6
				c0.1,0,0.2,0.1,0.2,0.3c0.3,2.1,0.4,4.2,0.4,6.1c0,0,0,0.1-0.1,0.1c0,0,0,0-0.1,0c-3.1-2-6.2-3-9.4-2.9
				c-7.5,0.1-11.9,6.3-10.1,13.7c1.7,7,9.5,9,15.5,6.4c2.4-1,2.5-3.7,2-5.9C601.4,225.7,601,225.4,600.2,225.5z"/>
			<path class="st3" d="M710.1,225.3c0.3-0.4,0.4-0.8,0.3-1.3c-0.3-4.3-0.4-9.2-0.1-14.9c0.1-1.4,0.8-2.2,2.2-2.3l1.5-0.1
				c1.4-0.1,2.2,0.5,2.2,2l-0.1,30.1c0,0.3-0.2,0.5-0.5,0.5c-0.1,0-0.2-0.1-0.3-0.1l-18.1-17.4c-1.2-1.2-1.8-0.9-1.8,0.8l0.1,14.4
				c0,1.7-0.8,2.6-2.6,2.6l-1.5,0c-1.3,0-2-0.6-2-2l-0.2-29.9c0-1.3,0.5-1.5,1.4-0.6l18.5,18.4C709.4,225.7,709.8,225.7,710.1,225.3
				C710.1,225.4,710.1,225.3,710.1,225.3z"/>
			<path class="st3" d="M753,220c-1.2,3.3-0.6,6.4,1.6,9.2c5,6.2,11.6,4.9,17.7,1.1c0.9-0.5,1.3-0.3,1.1,0.7l-0.5,4
				c-0.1,0.9-0.7,1.7-1.6,2.1c-11.8,5.3-24-0.8-24.5-14.4c-0.5-13.8,14.1-19.2,24.9-13.9c0.7,0.4,1.2,1.1,1.3,1.9l0.2,4
				c0.1,1.1-0.4,1.3-1.2,0.6c-2.3-1.8-5-2.8-8.1-3C758.4,212.2,754.8,214.7,753,220z"/>
			<path class="st3" d="M185.8,214l-0.5,24.1c0,0.6-0.5,1.2-1.1,1.2l-3.3,0.3c-0.7,0.1-1.3-0.5-1.3-1.1c0,0,0-0.1,0-0.1l-0.1-24.2
				c0-0.7-0.5-1.2-1.2-1.2l-6.2-0.4c-0.6,0-1.1-0.5-1.2-1.1l-0.3-2.7c-0.1-0.7,0.4-1.3,1.1-1.4c0,0,0.1,0,0.1,0l21.1-0.2
				c0.7,0,1.2,0.5,1.3,1.2c0,0.1,0,0.2,0,0.2l-0.6,2.9c-0.1,0.6-0.6,1-1.2,1l-5.5,0.2C186.4,212.8,185.8,213.3,185.8,214z"/>
			<path class="st3" d="M229.3,228.3l-0.1,8.9c0,1-0.5,1.6-1.5,1.7l-2.2,0.2c-1.4,0.1-2.1-0.5-2.1-1.9l0.1-28.9
				c0-0.6,0.5-1.1,1.1-1.1c0,0,0,0,0,0c5.3,0.1,13.2-1,17.4,2.4c5.8,4.7,4.8,11.5-0.5,16.2c-0.5,0.5-0.7,1.3-0.3,1.9l5.3,8.7
				c1.1,1.9,0.6,2.7-1.6,2.5l-1.6-0.2c-1.9-0.2-3.2-1.1-4.1-2.8c-1.8-3.5-4.1-9.1-8.9-8.5C229.5,227.4,229.3,227.7,229.3,228.3z
				 M229.2,213.6l0,7.8c0,0.5,0.4,0.8,0.8,0.8l4.9,0c2.6,0,4.7-1.9,4.7-4.2c0,0,0,0,0,0v-1c0-2.3-2.1-4.2-4.7-4.3l-4.9,0
				C229.6,212.8,229.2,213.1,229.2,213.6z"/>
			<path class="st3" d="M391.3,213.7l-0.2,4.5c0,0.7,0.5,1.3,1.2,1.3c0,0,0,0,0,0l11.1,0.2c0.7,0,1.2,0.6,1.2,1.3c0,0,0,0,0,0
				l-0.1,2.8c0,0.7-0.5,1.2-1.2,1.2l-11.1,0.2c-0.7,0-1.2,0.5-1.2,1.2l-0.2,5.4c0,0.7,0.5,1.3,1.2,1.3c0,0,0,0,0,0l12.4,0.2
				c0.6,0,1.1,0.5,1.2,1.1l0.3,2.7c0.1,0.7-0.4,1.3-1.1,1.4c0,0-0.1,0-0.1,0l-17.9,0.8c-0.7,0-1.3-0.5-1.3-1.2c0,0,0,0,0,0
				l-0.1-29.6c0-0.7,0.6-1.2,1.2-1.2c0,0,0,0,0,0l17.6,0.2c0.6,0,1.2,0.5,1.2,1.1l0.2,2.9c0.1,0.7-0.5,1.3-1.1,1.3c0,0-0.1,0-0.1,0
				l-12,0C391.9,212.6,391.4,213.1,391.3,213.7z"/>
			<path class="st3" d="M644.3,225.1c-0.5,0-0.8,0.3-0.8,0.8l-0.1,6.3c0,0.6,0.3,0.9,0.9,0.9l12.8,0c1,0,1.5,0.5,1.4,1.5l-0.2,2
				c-0.1,0.9-0.6,1.4-1.5,1.6c-1.4,0.2-2.7,0.3-4,0.3c-4.3-0.2-8.8,0-13.6,0.7c-0.6,0.1-1.1-0.3-1.2-0.9c0,0,0-0.1,0-0.1l0-30.2
				c0-0.4,0.3-0.7,0.7-0.7c0,0,0,0,0,0l17.3,0c1.4,0,2.1,0.7,2.1,2.1l0,1.2c0,1.1-0.5,1.7-1.7,1.8l-11.7,0.5c-0.7,0-1.1,0.4-1.1,1.1
				l-0.2,4.6c0,0.7,0.3,1.1,1.1,1.1L656,220c0.9,0,1.7,0.7,1.8,1.6l0.1,0.6c0.2,1.7-0.5,2.6-2.3,2.6L644.3,225.1z"/>
		</g>
	</g>
</g>
</svg>
